<svg version="1.0" xmlns="http://www.w3.org/2000/svg" width="128" height="128" viewBox="0 0 800.000000 800.000000" preserveAspectRatio="xMidYMid meet">
  <metadata>
    <rdf:RDF xmlns:rdf="http://www.w3.org/1999/02/22-rdf-syntax-ns#" xmlns:rdfs="http://www.w3.org/2000/01/rdf-schema#" xmlns:dc="http://purl.org/dc/elements/1.1/">
      <rdf:Description dc:format="image/svg+xml" dc:Label="1" dc:ContentProducer="001191330110MACRLGPT8B00000" dc:ProduceID="455888434" dc:ReservedCode1="XrgUOn7+iXD8gbKfvtFWfsxkpjMpH5tiRdrDMc0p+5s=" dc:ContentPropagator="001191330110MACRLGPT8B00000" dc:PropagateID="455888434" dc:ReservedCode2="XrgUOn7+iXD8gbKfvtFWfsxkpjMpH5tiRdrDMc0p+5s="/>
    </rdf:RDF>
  </metadata>
  <g transform="translate(172.903693,655.187529) scale(0.058953,-0.058953)" fill="#000000" stroke="none">
    <path d="M5585 7640 c-222 -52 -372 -132 -611 -326 -131 -107 -227 -159 -358 -193 -101 -27 -131 -26 -411 3 -511 55 -779 58 -1010 11 -310 -62 -398 -93 -790 -275 -115 -53 -232 -104 -260 -113 -147 -45 -241 -32 -585 83 -309 104 -404 123 -605 124 -165 0 -239 -15 -363 -75 -189 -91 -302 -283 -302 -511 0 -106 25 -193 111 -380 32 -71 59 -131 59 -134 0 -3 34 -73 75 -155 144 -290 290 -474 524 -662 236 -189 287 -244 358 -387 50 -100 59 -148 73 -391 6 -96 15 -201 20 -233 l9 -59 -70 -65 c-170 -158 -363 -466 -441 -705 -82 -252 -118 -446 -118 -633 0 -318 86 -494 295 -601 152 -77 287 -107 649 -143 110 -11 201 -22 203 -24 3 -2 11 -30 20 -63 39 -150 138 -276 267 -338 137 -66 186 -75 451 -85 515 -21 822 -44 1125 -85 238 -32 278 -42 461 -104 257 -88 386 -110 642 -111 380 0 614 64 774 213 l62 59 33 -25 c89 -68 204 -108 363 -127 50 -6 135 -19 190 -30 228 -43 505 -46 635 -6 146 44 277 143 327 244 27 54 28 64 27 192 0 116 -5 149 -28 235 -58 206 -143 400 -276 630 -213 366 -245 425 -301 540 -56 116 -258 614 -294 725 -24 75 -148 366 -197 465 -22 44 -71 134 -108 200 -58 101 -75 143 -111 270 -23 83 -54 196 -70 253 -39 138 -94 308 -136 417 -19 50 -43 124 -53 165 -19 72 -19 75 -1 115 10 22 52 79 93 126 179 206 263 418 324 814 19 130 22 414 5 550 -40 313 -135 497 -300 578 -63 31 -70 32 -201 34 -74 1 -153 -2 -175 -7z m169 -341 c98 -24 152 -103 186 -269 76 -371 -13 -841 -223 -1180 -68 -109 -63 -107 -110 -40 -23 33 -64 89 -91 126 -40 54 -47 69 -35 76 79 46 205 129 234 155 46 41 49 83 5 83 -45 0 -129 -35 -229 -95 -91 -56 -116 -65 -109 -43 4 12 49 39 200 119 89 47 131 82 126 107 -7 38 -117 22 -229 -35 -26 -12 -50 -23 -55 -23 -4 0 45 51 110 113 125 120 137 143 91 173 -52 34 -179 -13 -318 -118 -38 -28 -78 -66 -90 -84 -12 -19 -25 -34 -29 -34 -4 0 -19 17 -33 37 l-25 38 22 17 c50 37 233 142 292 165 33 14 99 36 146 50 101 29 140 60 140 110 0 76 -115 84 -277 19 -48 -19 -89 -33 -91 -32 -4 5 140 130 276 241 115 93 125 105 116 130 -10 25 -52 29 -117 11 -123 -34 -230 -101 -356 -220 -63 -60 -185 -204 -194 -228 -2 -7 -8 -10 -12 -6 -4 4 15 67 42 140 28 73 58 169 67 212 9 44 22 86 28 94 22 26 159 114 225 144 122 55 225 70 317 47z m-775 -381 c-81 -203 -102 -315 -79 -430 23 -117 73 -198 255 -411 44 -52 118 -141 165 -198 47 -57 118 -139 159 -182 l74 -79 -6 -59 c-12 -114 8 -204 124 -548 60 -179 116 -364 124 -410 43 -241 -11 -449 -147 -577 -71 -66 -155 -118 -303 -189 -176 -83 -187 -89 -206 -114 -39 -49 -15 -113 49 -131 94 -26 189 -7 337 67 204 103 325 213 401 368 24 50 44 96 44 102 0 7 5 24 11 40 l11 28 30 -60 c81 -163 205 -460 274 -650 193 -540 313 -806 489 -1080 28 -44 54 -85 58 -92 5 -7 -21 -2 -60 12 -103 36 -186 48 -313 48 -183 -1 -303 -41 -450 -152 -65 -49 -188 -171 -226 -225 l-21 -28 -37 51 c-21 28 -62 72 -92 97 -36 31 -51 50 -45 58 4 6 62 117 128 246 66 129 132 256 145 281 76 140 108 265 76 297 -14 14 -62 16 -87 2 -20 -10 -59 -69 -116 -175 -21 -38 -78 -142 -128 -230 -77 -138 -168 -313 -179 -346 -2 -6 -32 1 -73 17 -74 28 -82 31 -345 114 -148 47 -271 99 -355 150 -51 32 -196 86 -341 128 -239 70 -349 87 -652 102 -601 30 -631 33 -832 87 -264 70 -374 144 -580 387 -66 78 -142 160 -170 184 -66 56 -149 160 -210 262 -115 191 -152 362 -180 818 -5 91 -17 187 -26 220 -21 72 -91 214 -143 290 -48 70 -160 180 -261 257 -201 152 -324 304 -449 553 -65 131 -188 414 -206 476 -41 141 18 289 133 333 40 15 78 18 247 18 224 0 243 -4 493 -89 233 -79 288 -90 462 -91 177 0 218 9 385 83 151 67 358 152 372 152 19 0 123 -129 235 -293 214 -313 265 -427 287 -646 22 -209 -31 -391 -168 -581 -156 -216 -208 -306 -262 -453 -58 -156 -81 -270 -84 -414 l-3 -133 -53 -44 c-56 -46 -137 -134 -226 -245 -72 -90 -71 -129 4 -150 19 -6 37 -4 50 3 11 6 76 77 144 158 68 82 128 148 134 148 5 0 23 -20 38 -45 56 -88 155 -151 256 -161 l59 -7 4 -73 c12 -182 158 -340 405 -436 63 -25 97 -32 179 -36 124 -6 212 12 334 66 120 54 191 103 292 200 187 181 256 312 298 572 6 36 18 99 27 140 21 90 22 260 4 345 -19 89 -57 197 -112 320 -66 147 -122 238 -187 307 l-53 56 68 7 c99 10 173 54 218 129 9 15 14 15 63 1 118 -36 235 -56 280 -49 77 11 118 77 75 117 -17 14 -206 75 -318 102 -46 11 -50 14 -57 49 -25 120 -136 205 -280 214 -106 6 -165 -16 -239 -88 -64 -64 -86 -125 -75 -211 5 -33 3 -49 -5 -49 -6 0 -39 28 -74 63 -78 78 -153 225 -184 363 -36 157 -26 364 26 549 14 50 40 150 58 224 19 73 36 135 38 138 3 2 121 -5 264 -17 266 -23 412 -23 508 1 65 15 243 87 275 110 44 32 52 24 29 -33z m-1247 -73 c-2 -16 -19 -77 -37 -135 -82 -256 -107 -391 -108 -590 -1 -206 30 -351 109 -512 70 -144 161 -239 314 -328 162 -95 243 -185 335 -375 85 -176 115 -283 115 -413 0 -125 -23 -220 -66 -270 -50 -59 -77 -60 -230 -11 -111 35 -145 42 -244 46 -108 5 -140 13 -140 35 0 5 38 47 84 93 98 98 200 246 223 324 43 148 -38 322 -184 398 -90 47 -145 58 -283 58 -115 0 -131 -3 -195 -29 -38 -16 -89 -42 -113 -58 -95 -65 -162 -200 -162 -328 0 -190 111 -320 360 -423 49 -19 70 -43 70 -76 0 -27 -3 -29 -52 -34 -74 -8 -225 -60 -341 -119 -90 -45 -102 -48 -131 -38 -73 24 -123 117 -132 249 -16 206 69 464 235 714 39 59 87 139 106 178 157 310 177 665 55 969 -34 86 -117 220 -258 417 -112 156 -128 184 -114 192 31 16 241 62 370 81 85 12 175 18 272 17 l145 -2 -3 -30z m685 -1207 c16 -15 23 -33 23 -60 0 -32 -5 -41 -32 -59 -58 -35 -122 -8 -134 58 -5 27 -2 39 17 59 30 32 93 33 126 2z m-684 -719 c31 -7 57 -16 57 -20 0 -5 -12 -15 -27 -23 -16 -8 -39 -26 -53 -41 -21 -22 -25 -36 -24 -84 2 -101 36 -168 93 -179 17 -4 33 -12 33 -17 2 -15 -103 -98 -112 -88 -4 4 -15 65 -24 134 -18 146 -22 159 -46 159 -36 0 -42 -25 -39 -145 2 -63 0 -115 -5 -115 -5 0 -24 10 -43 21 l-34 21 23 25 c20 21 23 35 23 96 0 58 -4 78 -22 103 -26 36 -72 58 -108 52 -34 -7 -31 5 8 38 74 62 186 86 300 63z m277 -899 c0 -22 -52 -112 -87 -151 -78 -86 -198 -128 -311 -109 -119 20 -212 90 -212 159 0 26 4 28 158 65 86 21 162 39 167 41 27 9 285 4 285 -5z m410 -85 c-18 -31 -58 -89 -89 -128 -132 -166 -279 -263 -490 -323 -173 -49 -305 -26 -477 87 -60 38 -108 89 -134 139 -10 21 -6 19 26 -11 52 -49 133 -99 219 -135 65 -27 80 -29 195 -29 121 0 128 1 192 33 140 69 242 172 304 306 l38 83 86 6 c47 3 101 12 120 20 19 8 37 14 39 12 2 -2 -11 -29 -29 -60z m-2830 -262 c23 -71 106 -218 199 -353 52 -74 100 -150 108 -168 28 -66 137 -1041 122 -1079 -7 -15 -416 35 -514 63 -244 68 -320 142 -346 335 -16 117 -6 315 20 413 66 242 183 510 309 706 71 111 77 120 84 120 3 0 12 -17 18 -37z m554 -656 c37 -40 169 -142 265 -207 153 -102 296 -159 511 -204 155 -32 200 -37 739 -66 319 -18 527 -63 744 -162 37 -17 66 -36 64 -41 -1 -5 -21 -17 -42 -25 -60 -24 -181 -97 -249 -152 -134 -106 -362 -368 -470 -539 l-41 -64 -490 6 c-513 7 -565 11 -667 55 -111 48 -172 147 -208 337 -11 61 -36 189 -55 285 -19 96 -48 263 -65 370 -17 107 -40 241 -51 298 -27 144 -26 152 15 109z m2525 -801 c71 -42 154 -75 306 -120 177 -52 328 -109 391 -147 74 -45 153 -124 187 -187 28 -51 87 -261 87 -307 0 -25 -81 -98 -87 -79 -11 32 -97 171 -133 214 -68 81 -118 98 -165 57 -41 -35 -36 -77 25 -212 31 -67 49 -120 44 -125 -10 -9 -234 -31 -246 -24 -4 3 -8 36 -8 73 0 146 -75 297 -163 330 -40 15 -54 14 -77 -9 -28 -28 -26 -88 10 -230 42 -167 43 -163 -27 -155 -90 10 -214 41 -378 94 -169 55 -288 82 -454 106 -135 18 -161 24 -161 36 0 25 282 351 389 449 91 83 355 269 385 269 10 1 44 -14 75 -33z m2081 -65 c52 -17 124 -46 160 -64 55 -27 69 -40 92 -82 16 -27 35 -72 43 -99 16 -54 43 -294 47 -431 l3 -89 -42 -24 c-24 -13 -47 -21 -51 -18 -11 6 -52 120 -83 226 -27 96 -54 153 -89 190 -56 60 -135 28 -147 -58 -5 -37 10 -258 24 -344 5 -37 5 -38 -27 -38 -29 0 -204 24 -256 35 -21 5 -21 5 -3 42 22 45 39 175 39 293 0 104 -19 143 -75 159 -47 13 -80 0 -99 -37 -17 -32 -36 -216 -36 -343 l0 -87 -97 24 c-54 14 -132 36 -174 50 l-75 24 -12 98 c-6 54 -20 127 -32 163 -11 35 -20 71 -20 80 0 22 138 168 213 225 70 53 163 100 252 126 49 14 88 17 205 14 131 -3 154 -6 240 -35z"/>
    <path d="M1110 6530 c-167 -44 -296 -131 -269 -182 14 -25 41 -23 145 13 81 27 98 30 189 27 80 -3 109 -9 145 -27 54 -28 150 -98 150 -110 0 -5 -25 -19 -56 -31 -68 -28 -211 -117 -279 -174 -27 -23 -88 -71 -135 -108 -111 -85 -124 -101 -116 -133 6 -22 12 -25 47 -25 22 0 59 10 82 21 80 41 410 277 486 347 18 18 37 32 41 32 5 0 34 -28 65 -62 121 -134 152 -238 69 -238 -38 0 -194 -48 -280 -86 -31 -14 -59 -23 -61 -20 -3 2 21 24 52 48 167 125 198 160 181 203 -22 59 -228 -71 -349 -220 -61 -76 -75 -120 -53 -163 15 -28 21 -32 59 -32 42 0 254 64 382 115 37 15 69 25 72 22 6 -6 -16 -152 -28 -184 -7 -20 -12 -21 -34 -13 -36 14 -283 14 -333 0 -67 -18 -81 -76 -24 -98 63 -24 249 -17 350 14 27 8 27 13 2 -186 -24 -188 -26 -263 -5 -280 24 -20 61 -4 79 35 36 75 164 558 201 754 30 164 14 268 -59 379 -81 126 -269 292 -394 350 -78 36 -213 41 -322 12z"/>
    <path d="M1130 6286 c-58 -24 -154 -67 -215 -96 -143 -68 -151 -79 -82 -110 58 -27 145 -26 200 1 109 55 262 191 255 227 -6 30 -49 24 -158 -22z"/>
    <path d="M2698 5654 c-176 -42 -298 -168 -298 -306 l0 -58 -110 -108 c-110 -109 -149 -168 -150 -225 0 -20 7 -31 25 -39 22 -10 32 -6 82 27 31 21 84 61 117 89 34 28 78 64 98 79 l36 28 54 -35 c48 -32 146 -66 190 -66 9 0 40 5 68 11 267 57 298 535 39 609 -44 13 -81 11 -151 -6z m120 -250 c51 -35 11 -123 -67 -146 -35 -10 -81 38 -81 86 0 64 90 101 148 60z"/>
  </g>
</svg>